# xmcd
#
# Track frame offsets:
# 150
# 19791
# 39043
# 57619
# 79662
# 101363
# 119561
# 138331
# 156732
# 172804
# 193008
# 211174
# 236634
# 255435
# 274089
# 292459
# 312502
# 331462
#
# Disc length: 4676 seconds
#
#
# Revision: 0
# Processed by: cddbd v1.5.1PL2 Copyright (c) Steve Scherf et al.
# Submitted via: FreeRIP 2.945 
#
DISCID=0a124212
DTITLE=Various Artist - GOOD TIMES
DYEAR=2004
DGENRE=Oldies
TTITLE0=Mariah Carey - I´ll be There
TTITLE1=Simply Red - For You Babies
TTITLE2=Richard Mark - Right Here Waiting..
TTITLE3=Whitney Houston - Greatest Love of All
TTITLE4=Atlantic Star - Always
TTITLE5=George B  - Nothing´s Gonna Change My Love For You
TTITLE6=Barry White - Just The Way You are
TTITLE7=Century - Lover Why
TTITLE8=Debbie Gibson - Lost In Your Eyes
TTITLE9=Diana Ross - Lionel - EndLess Love
TTITLE10=Freddy Mercury - How Can I Go On
TTITLE11=Extreme - More than Words
TTITLE12=Jim Diamond - Should Have Known Better
TTITLE13=Jimmy Cliff/ Higher and Higher - Rebel in me
TTITLE14=Lionel Richie - Say you, Say me
TTITLE15=Manhattans - Forever by Your Side
TTITLE16=Paul Mc Cartney  -  My Love
TTITLE17=Peter Cetera - Glory of Love
EXTD=
EXTT0=
EXTT1=
EXTT2=
EXTT3=
EXTT4=
EXTT5=
EXTT6=
EXTT7=
EXTT8=
EXTT9=
EXTT10=
EXTT11=
EXTT12=
EXTT13=
EXTT14=
EXTT15=
EXTT16=
EXTT17=
PLAYORDER=
